<?xml version="1.0" ?>
<!-- Uploaded to: SVG Repo, www.svgrepo.com, Generator: SVG Repo Mixer Tools -->
<svg width="800px" height="800px" viewBox="0 0 108 108" id="Layeri" xmlns="http://www.w3.org/2000/svg" xmlns:xlink="http://www.w3.org/1999/xlink">
<defs>
<style>.cls-1{fill:none;}.cls-2{clip-path:url(#clip-path);}</style>
<clipPath id="clip-path">
<rect class="cls-1" height="104" width="104" x="2" y="2"/>
</clipPath>
</defs>
<title/>
<g class="cls-2">
<g id="Line">
<path d="M99.41,28.77l-.07-.07h0a15.23,15.23,0,0,0,.58-4.18,15.54,15.54,0,0,0-19.67-15,24.55,24.55,0,0,0-34.68,0L8.93,46.19a24.56,24.56,0,0,0,0,34.69h0A15.52,15.52,0,0,0,28.07,100l.07.06a24.49,24.49,0,0,0,33.79-.84l9.39-9.38L68.49,87l-9.38,9.38a20.49,20.49,0,0,1-26.65,2L97.78,33.08a20.51,20.51,0,0,1-2,26.65L77,78.49l2.83,2.83L98.57,62.56A24.5,24.5,0,0,0,99.41,28.77ZM5.75,63.53a20.38,20.38,0,0,1,6-14.51L48.4,12.39A20.5,20.5,0,0,1,75.94,11l-2.49,2.49L12.92,74.07l-2.5,2.5A20.36,20.36,0,0,1,5.75,63.53Zm86.8-30.88L31.83,93.37A11.51,11.51,0,0,1,15.55,77.09L76.27,16.37a11.52,11.52,0,0,1,16.28,0A11.52,11.52,0,0,1,92.55,32.65Z"/>
<path d="M25.77,81a2,2,0,0,1-1.41-3.41c1.92-1.92,4.79-2.38,7.58-2.84,2.16-.35,4.39-.71,5.39-1.72s1.37-3.23,1.72-5.39c.45-2.78.92-5.66,2.84-7.58s4.79-2.38,7.58-2.84c2.16-.35,4.39-.71,5.39-1.72s1.37-3.23,1.72-5.39c.45-2.78.92-5.66,2.84-7.58s4.79-2.38,7.58-2.84c2.16-.35,4.39-.71,5.39-1.72s1.37-3.23,1.72-5.39c.45-2.78.92-5.66,2.84-7.58a2,2,0,0,1,2.83,2.83c-1,1-1.37,3.23-1.72,5.39-.45,2.78-.92,5.66-2.84,7.58s-4.79,2.38-7.58,2.84c-2.16.35-4.39.71-5.39,1.72s-1.37,3.23-1.72,5.39c-.45,2.78-.92,5.66-2.84,7.58s-4.79,2.38-7.58,2.84c-2.16.35-4.39.71-5.39,1.72S43.33,66.08,43,68.24c-.45,2.78-.92,5.66-2.84,7.58s-4.79,2.38-7.58,2.84c-2.16.35-4.39.71-5.39,1.72A2,2,0,0,1,25.77,81Z"/>
<rect height="4" rx="2" ry="2" transform="translate(81.07 -27.72) rotate(45)" width="4" x="72" y="82"/>
</g>
</g>
</svg>